<svg width="181" height="120" viewBox="0 0 181 120" fill="none" xmlns="http://www.w3.org/2000/svg">
<path fill-rule="evenodd" clip-rule="evenodd" d="M151.726 1.27475C162.454 3.49122 170.652 9.24081 176.322 18.5235C177.458 21.0089 178.416 23.5643 179.196 26.1896C179.568 28.0979 179.887 30.0144 180.155 31.9392C180.155 32.5781 180.155 33.2169 180.155 33.8558C180.155 36.4111 180.155 38.9665 180.155 41.5219C179.396 46.6879 178.225 51.7986 176.641 56.8541C169.328 74.4431 159 90.0417 145.657 103.649C140.303 107.5 135.192 107.234 130.325 102.851C130.112 102.425 129.792 102.106 129.367 101.893C129.172 101.275 128.852 100.742 128.408 100.295C128.269 99.4468 127.95 98.7013 127.45 98.0595C127.544 97.3456 127.438 96.7068 127.131 96.143C127.131 95.2911 127.131 94.4395 127.131 93.5876C127.443 90.6212 128.614 88.0658 130.644 85.9215C131.366 85.0089 132.004 84.0507 132.561 83.0467C133.354 82.312 133.993 81.4602 134.477 80.4913C135.376 79.5503 136.121 78.4857 136.713 77.2971C137.594 76.282 138.233 75.1107 138.63 73.7835C139.511 72.7684 140.15 71.597 140.546 70.2698C141.003 69.861 141.217 69.3285 141.185 68.6727C142.755 65.5606 143.82 62.26 144.379 58.7707C144.537 58.0341 144.643 57.2889 144.699 56.5347C145.705 50.9643 144.746 45.7472 141.824 40.883C140.279 38.22 138.149 36.1438 135.436 34.6543C131.6 32.6832 127.554 31.4588 123.298 30.981C114.115 22.6032 103.786 15.8953 92.3137 10.8574C101.815 6.58961 111.717 3.44874 122.02 1.43446C131.914 -0.423293 141.816 -0.476636 151.726 1.27475Z" fill="#131313"/>
<path fill-rule="evenodd" clip-rule="evenodd" d="M86.245 13.7323C91.3557 16.5008 96.4665 19.2689 101.577 22.0373C101.507 22.4126 101.614 22.732 101.897 22.9956C102.52 23.3984 103.159 23.7708 103.813 24.1135C102.745 24.2956 102.639 24.6681 103.494 25.2315C103.129 25.527 103.129 25.7934 103.494 26.0301C103.03 25.9461 102.604 25.9994 102.216 26.1898C102.945 26.438 103.637 26.7574 104.292 27.148C104.702 26.8056 104.809 26.3798 104.612 25.8704C105.699 26.1796 105.859 26.6587 105.091 27.3078C105.594 27.4205 106.126 27.6336 106.688 27.9466C105.769 29.5172 104.704 29.89 103.494 29.0646C103.654 28.6762 103.76 28.3034 103.813 27.9466C103.206 27.883 102.726 27.6166 102.376 27.148C101.364 27.5208 101.311 27.9999 102.216 28.5854C102.11 28.6388 102.003 28.6918 101.897 28.7452C101.234 28.6627 100.488 28.503 99.6607 28.266C99.3643 28.1421 99.1512 27.929 99.0218 27.6272C99.3659 26.7727 99.0464 26.1872 98.0636 25.8704C98.2313 25.6493 98.4443 25.4896 98.7024 25.3912C98.0268 25.2133 97.388 24.9469 96.7859 24.5927C96.2834 25.3388 95.8576 25.3388 95.5082 24.5927C95.6759 24.3716 95.889 24.2119 96.147 24.1135C95.3249 24.1662 94.5793 23.8468 93.9111 23.1553C94.1241 23.0489 94.3369 22.9422 94.5499 22.8358C94.0175 22.6228 93.4853 22.6228 92.9528 22.8358C93.3786 23.1553 93.3786 23.4747 92.9528 23.7941C93.1659 23.9005 93.3786 24.0072 93.5917 24.1135C91.763 25.6375 91.9757 26.8088 94.2305 27.6272C94.2925 28.297 94.2925 28.9889 94.2305 29.7034C94.6026 30.0497 95.0284 30.3157 95.5082 30.502C95.1888 30.6083 94.8694 30.715 94.5499 30.8214C94.7991 31.1641 94.7457 31.5369 94.3902 31.9394C93.937 31.6327 93.4578 31.3666 92.9528 31.1408C93.1659 30.9278 93.3786 30.715 93.5917 30.502C92.4085 29.9535 91.2906 30.0065 90.2377 30.6617C90.0247 30.4486 89.812 30.2359 89.5989 30.0228C88.97 30.8156 88.5972 31.6142 88.4809 32.4185C88.694 32.7379 88.9067 33.0573 89.1198 33.3768C89.9848 33.6486 90.7833 33.8083 91.5154 33.8559C91.7403 34.4238 91.9 35.0096 91.9946 35.6127C91.5822 36.2672 91.1564 37.1191 90.7169 38.1681C90.8916 38.4636 91.1043 38.7296 91.3557 38.9666C91.7377 38.8561 91.7377 38.6964 91.3557 38.4875C92.3676 38.3016 92.474 37.9822 91.6751 37.5292C92.0882 37.3727 92.5143 37.3194 92.9528 37.3695C93.1263 38.4923 93.4457 39.5569 93.9111 40.5638C92.3964 40.344 92.1303 40.6634 93.1125 41.522C93.5939 41.1914 94.073 41.2448 94.5499 41.6817C94.7566 42.1957 95.0227 42.6748 95.3485 43.1191C95.6714 42.8518 96.0442 42.7454 96.4665 42.7997C96.2956 43.6743 96.615 44.2601 97.4247 44.5565C97.3184 44.6629 97.2117 44.7696 97.1053 44.8759C97.9636 45.3043 98.4958 45.8365 98.7024 46.4731C98.4798 47.3384 98.3734 48.1903 98.383 49.0284C99.1873 49.5082 99.9859 49.9873 100.779 50.4658C101.038 51.0842 101.198 51.7231 101.258 52.3824C101.905 52.3306 102.544 52.384 103.174 52.5421C102.139 52.6325 102.032 52.8989 102.855 53.3406C102.862 54.0121 102.755 54.7039 102.535 55.4169C103.234 55.6098 103.287 55.9822 102.695 56.5348C102.187 55.8982 101.708 55.2594 101.258 54.6183C100.833 54.9671 100.567 55.3932 100.459 55.896C99.9843 55.6555 99.9309 55.3894 100.3 55.0974C100.086 54.8844 99.8737 54.6717 99.6607 54.4586C100.142 54.1912 100.302 53.8185 100.14 53.3406C100.033 53.447 99.9268 53.5537 99.8204 53.66C99.2879 53.447 98.7558 53.2343 98.2233 53.0212C97.7729 53.7827 97.1341 54.3149 96.3068 54.6183C96.1525 54.3155 96.0995 53.9961 96.147 53.66C95.7717 53.5901 95.4523 53.6965 95.1888 53.9795C95.5478 54.4311 95.8672 54.9103 96.147 55.4169C95.7459 55.5501 95.5328 55.8161 95.5082 56.2154C89.6257 52.2479 83.6634 48.4148 77.6206 44.7162C70.2595 39.5467 62.1673 35.9264 53.3445 33.8559C51.5957 33.54 49.7855 33.4336 47.9144 33.5365C32.6374 32.0451 19.2217 36.3573 7.66723 46.4731C4.66531 49.5229 2.10993 52.8768 0.00111159 56.5348C0.00111159 54.6183 0.00111159 52.7018 0.00111159 50.7853C-0.0247616 47.2144 0.401028 43.7008 1.2788 40.2443C3.98047 30.4656 9.30427 22.48 17.2499 16.2877C24.5285 10.0951 32.9399 6.31504 42.4842 4.94823C57.7944 4.34357 72.3814 7.27139 86.245 13.7323Z" fill="#F0B400"/>
<path fill-rule="evenodd" clip-rule="evenodd" d="M92.3139 10.8574C103.787 15.8953 114.115 22.6032 123.298 30.981C120.423 30.981 117.548 30.981 114.673 30.981C112.283 29.3047 109.941 27.5478 107.646 25.7105C105.712 24.3185 103.688 23.0938 101.577 22.0372C96.4664 19.2688 91.3556 16.5006 86.2449 13.7322C88.1608 12.5941 90.184 11.6359 92.3139 10.8574Z" fill="#131313"/>
<path fill-rule="evenodd" clip-rule="evenodd" d="M101.577 22.0371C103.689 23.0938 105.712 24.3184 107.646 25.7105C109.941 27.5478 112.284 29.3046 114.674 30.9809C115.393 31.8737 116.244 32.6189 117.229 33.2169C118.299 34.2863 119.471 35.2446 120.743 36.0917C122.066 37.233 123.451 38.2976 124.895 39.2859C129.986 43.7891 135.043 48.3674 140.068 53.021C140.957 54.1438 141.436 55.4215 141.505 56.8541C141.711 59.5449 141.072 61.9936 139.588 64.2008C134.431 69.3808 128.255 71.1377 121.062 69.4712C111.846 66.3013 103.328 61.8827 95.5082 56.2152C95.5328 55.816 95.7459 55.5499 96.1471 55.4167C95.8673 54.9101 95.5478 54.4309 95.1888 53.9793C95.4523 53.6963 95.7718 53.5899 96.1471 53.6599C96.0995 53.9959 96.1525 54.3153 96.3068 54.6181C97.1341 54.3147 97.7729 53.7825 98.2233 53.021C98.7558 53.2341 99.288 53.4468 99.8204 53.6599C99.9268 53.5535 100.033 53.4468 100.14 53.3404C100.302 53.8183 100.142 54.1911 99.6607 54.4584C99.8738 54.6715 100.087 54.8842 100.3 55.0973C99.9309 55.3892 99.9843 55.6553 100.459 55.8958C100.567 55.393 100.833 54.9669 101.258 54.6181C101.708 55.2592 102.187 55.898 102.695 56.5347C103.287 55.9821 103.234 55.6096 102.536 55.4167C102.755 54.7037 102.862 54.0119 102.855 53.3404C102.032 52.8987 102.139 52.6323 103.174 52.5419C102.544 52.3838 101.905 52.3304 101.258 52.3822C101.198 51.7229 101.038 51.084 100.779 50.4656C99.9859 49.9872 99.1873 49.508 98.383 49.0282C98.3734 48.1901 98.4798 47.3382 98.7025 46.4729C98.4958 45.8363 97.9636 45.3041 97.1053 44.8758C97.2117 44.7694 97.3184 44.6627 97.4248 44.5563C96.615 44.2599 96.2956 43.6741 96.4665 42.7995C96.0442 42.7452 95.6715 42.8516 95.3485 43.1189C95.0227 42.6746 94.7566 42.1955 94.55 41.6815C94.0731 41.2446 93.5939 41.1912 93.1126 41.5218C92.1304 40.6632 92.3964 40.3438 93.9111 40.5636C93.4457 39.5568 93.1263 38.4921 92.9529 37.3694C92.5143 37.3192 92.0882 37.3725 91.6752 37.5291C92.474 37.982 92.3677 38.3014 91.3558 38.4873C91.7378 38.6962 91.7378 38.8559 91.3558 38.9665C91.1044 38.7295 90.8916 38.4634 90.7169 38.1679C91.1564 37.1189 91.5822 36.267 91.9946 35.6125C91.9 35.0095 91.7403 34.4236 91.5155 33.8557C90.7833 33.8081 89.9848 33.6484 89.1198 33.3766C88.9067 33.0572 88.694 32.7377 88.481 32.4183C88.5972 31.614 88.97 30.8155 89.5989 30.0227C89.812 30.2357 90.0247 30.4484 90.2378 30.6615C91.2906 30.0064 92.4086 29.9533 93.5917 30.5018C93.3787 30.7148 93.1659 30.9276 92.9529 31.1406C93.4579 31.3665 93.937 31.6325 94.3903 31.9392C94.7458 31.5367 94.7991 31.1639 94.55 30.8212C94.8694 30.7148 95.1888 30.6082 95.5082 30.5018C95.0285 30.3156 94.6027 30.0495 94.2305 29.7032C94.2925 28.9887 94.2925 28.2968 94.2305 27.627C91.9758 26.8086 91.763 25.6373 93.5917 24.1134C93.3787 24.007 93.1659 23.9003 92.9529 23.7939C93.3787 23.4745 93.3787 23.1551 92.9529 22.8357C93.4853 22.6226 94.0175 22.6226 94.55 22.8357C94.3369 22.942 94.1242 23.0487 93.9111 23.1551C94.5794 23.8466 95.3249 24.1661 96.1471 24.1134C95.889 24.2117 95.6759 24.3714 95.5082 24.5925C95.8577 25.3387 96.2835 25.3387 96.7859 24.5925C97.388 24.9467 98.0269 25.2131 98.7025 25.391C98.4444 25.4894 98.2313 25.6491 98.0636 25.8702C99.0465 26.187 99.3659 26.7725 99.0219 27.627C99.1512 27.9288 99.3643 28.1419 99.6607 28.2658C100.488 28.5028 101.234 28.6626 101.897 28.745C102.003 28.6916 102.11 28.6386 102.216 28.5853C101.311 27.9998 101.364 27.5206 102.376 27.1479C102.727 27.6164 103.206 27.8828 103.813 27.9464C103.76 28.3032 103.654 28.676 103.494 29.0644C104.704 29.8898 105.769 29.517 106.688 27.9464C106.126 27.6334 105.594 27.4203 105.091 27.3076C105.859 26.6585 105.699 26.1794 104.612 25.8702C104.809 26.3796 104.702 26.8054 104.292 27.1479C103.637 26.7572 102.945 26.4378 102.216 26.1896C102.605 25.9992 103.03 25.9459 103.494 26.0299C103.129 25.7932 103.129 25.5268 103.494 25.2313C102.639 24.6679 102.745 24.2954 103.813 24.1134C103.159 23.7706 102.521 23.3982 101.897 22.9954C101.614 22.7319 101.507 22.4124 101.577 22.0371Z" fill="#F0B400"/>
<path fill-rule="evenodd" clip-rule="evenodd" d="M49.8311 37.3696C49.9374 37.3696 50.0441 37.3696 50.1505 37.3696C50.123 37.6878 50.2297 37.9539 50.4699 38.1682C58.9886 39.4277 66.8677 42.3558 74.1071 46.9523C71.8041 49.2754 69.0356 50.7662 65.8021 51.4242C64.794 51.3466 63.8358 51.0805 62.9273 50.6256C59.766 48.8854 56.5718 47.2353 53.3447 45.6746C53.1936 45.2255 52.8742 45.0124 52.3864 45.0358C52.2801 44.7163 52.067 44.5033 51.7476 44.3969C50.6814 43.2218 50.0425 41.8377 49.8311 40.2444C49.8311 39.2862 49.8311 38.3279 49.8311 37.3696Z" fill="#F0B400"/>
<path fill-rule="evenodd" clip-rule="evenodd" d="M47.914 33.5365C41.7872 34.1504 36.8892 36.9188 33.2206 41.8414C32.7948 41.3837 32.3157 40.9576 31.7832 40.5637C31.2632 41.5594 30.9971 42.5176 30.9846 43.4385C29.6958 42.8923 29.5891 42.4132 30.6652 42.0011C30.2925 41.8414 30.0264 41.5753 29.8667 41.2026C29.7491 41.653 29.483 41.9724 29.0681 42.1608C28.337 41.9765 27.9645 41.6571 27.9501 41.2026C27.4822 41.4677 27.003 41.5207 26.5127 41.3623C26.8711 40.8471 26.7114 40.4743 26.0336 40.2443C25.6672 40.5503 25.3478 40.444 25.0753 39.9249C24.5033 40.5679 24.0771 40.5679 23.7977 39.9249C23.3511 40.1009 22.925 40.2073 22.52 40.2443C22.083 39.5049 21.8169 39.5049 21.7214 40.2443C21.823 40.6107 22.0357 40.8771 22.3603 41.0429C22.0408 41.1492 21.7214 41.2559 21.402 41.3623C22.2539 42.64 22.0408 43.7046 20.7631 44.5565C20.9091 44.6888 21.0158 44.8485 21.0826 45.0356C20.6315 45.4528 20.0991 45.7192 19.4855 45.8342C19.1389 46.528 18.7128 47.1668 18.2078 47.7507C17.4418 47.7587 16.6966 48.0251 15.9718 48.5493C16.3139 49.1322 16.1009 49.505 15.333 49.6673C15.546 49.7736 15.7588 49.8803 15.9718 49.9867C15.333 50.3061 14.6941 50.6255 14.0553 50.9449C13.7793 51.6065 13.3535 52.1389 12.7776 52.5421C12.9907 52.6484 13.2034 52.7551 13.4164 52.8615C12.9095 53.1368 12.377 53.3499 11.8193 53.5003C11.9653 53.6326 12.072 53.7923 12.1388 53.9795C11.1559 54.3864 10.3573 55.0252 9.7431 55.896C9.63673 55.5766 9.53004 55.2571 9.42367 54.9377C8.9685 55.1651 8.48937 55.2185 7.98628 55.0974C8.45135 56.4703 8.07891 57.5883 6.8683 58.4514C6.62171 58.405 6.40865 58.2987 6.22946 58.1319C5.98989 59.2442 5.40407 60.1491 4.47264 60.847C4.80324 61.3284 4.74989 61.8075 4.31293 62.2844C4.08358 61.9806 3.8175 61.9276 3.51437 62.1247C3.28215 62.5716 3.12244 63.0507 3.03524 63.5621C2.49861 63.2098 2.01948 63.3161 1.59784 63.8815C1.25191 64.1578 1.19888 64.4772 1.43813 64.8398C1.57325 64.3747 1.83932 64.215 2.23668 64.3607C1.9211 65.0528 1.49531 65.6383 0.958998 66.1175C0.47731 62.9459 0.157888 59.7517 0.000732422 56.5348C2.10955 52.8768 4.66493 49.5229 7.66685 46.473C19.2213 36.3573 32.637 32.0451 47.914 33.5365Z" fill="#131313"/>
<path fill-rule="evenodd" clip-rule="evenodd" d="M33.2211 41.8416C32.6065 42.9651 32.074 44.1364 31.624 45.3553C30.2348 48.2508 29.4896 51.3384 29.388 54.6185C29.388 55.8962 29.388 57.1739 29.388 58.4516C29.1251 57.3409 28.9654 56.1696 28.9089 54.9379C28.7849 55.2344 28.5719 55.4474 28.27 55.5768C27.688 54.7303 26.8895 54.1978 25.8744 53.9797C25.7153 53.6274 25.6089 53.3079 25.5549 53.0214C25.255 53.5175 24.8822 53.9436 24.437 54.2991C23.7109 53.299 23.0191 53.246 22.3607 54.1394C22.8204 54.4559 23.1398 54.8817 23.319 55.4171C22.8411 55.579 22.4684 55.4193 22.201 54.9379C21.4219 55.4257 20.7831 56.0645 20.2845 56.8545C20.1781 56.7481 20.0714 56.6414 19.9651 56.535C19.8194 56.9324 19.9791 57.1985 20.4442 57.3336C19.583 57.554 18.8909 58.0331 18.368 58.771C18.0485 58.3452 17.7291 58.3452 17.4097 58.771C17.7291 59.6884 18.1016 60.4869 18.5277 61.1667C17.9077 61.2638 17.3755 61.5298 16.9306 61.9652C16.7019 61.7062 16.4355 61.4931 16.132 61.3264C15.7647 61.6215 15.4452 61.6215 15.1737 61.3264C14.4487 62.0626 14.3956 62.7545 15.014 63.4026C14.801 63.509 14.5882 63.6157 14.3752 63.722C14.7 64.0571 14.7534 64.4299 14.5349 64.84C14.4285 64.627 14.3218 64.4142 14.2155 64.2012C13.729 64.8783 13.1435 64.9847 12.4587 64.5206C11.8933 64.9422 11.7869 65.4214 12.1392 65.958C11.8198 66.0644 11.5004 66.171 11.181 66.2774C11.487 66.6438 11.3806 66.9632 10.8615 67.2357C10.5587 67.39 10.2393 67.443 9.90328 67.3954C10.0192 68.1655 9.69981 68.6446 8.94502 68.8328C9.05138 68.9392 9.15807 69.0458 9.26444 69.1522C8.92936 69.3094 8.60994 69.2563 8.30617 68.9925C7.49867 69.3113 7.49867 69.5774 8.30617 69.7911C7.74718 70.3513 7.53413 71.0435 7.66733 71.8673C8.78499 71.7903 8.89135 72.0564 7.98675 72.6658C8.37996 73.0437 8.37996 73.4162 7.98675 73.7838C7.79957 73.7171 7.63986 73.6104 7.50762 73.4644C6.91222 75.0746 6.06032 76.3523 4.95224 77.2975C4.88517 77.7951 4.72545 78.2209 4.47311 78.5752C2.8562 74.5575 1.68488 70.405 0.959473 66.1177C1.49578 65.6386 1.92157 65.0531 2.23716 64.3609C1.8398 64.2152 1.57372 64.3749 1.43861 64.84C1.19936 64.4775 1.25238 64.158 1.59832 63.8817C2.01995 63.3164 2.49909 63.21 3.03571 63.5623C3.12292 63.0509 3.28263 62.5718 3.51485 62.1249C3.81798 61.9278 4.08406 61.9809 4.3134 62.2846C4.75037 61.8077 4.80371 61.3286 4.47311 60.8472C5.40455 60.1493 5.99037 59.2444 6.22993 58.1322C6.40913 58.2989 6.62218 58.4053 6.86877 58.4516C8.07938 57.5885 8.45183 56.4705 7.98675 55.0977C8.48984 55.2187 8.96897 55.1654 9.42415 54.9379C9.53052 55.2574 9.6372 55.5768 9.74357 55.8962C10.3578 55.0255 11.1564 54.3866 12.1392 53.9797C12.0725 53.7925 11.9658 53.6328 11.8198 53.5005C12.3775 53.3501 12.91 53.137 13.4169 52.8617C13.2039 52.7553 12.9911 52.6486 12.7781 52.5423C13.354 52.1392 13.7798 51.6067 14.0558 50.9452C14.6946 50.6257 15.3335 50.3063 15.9723 49.9869C15.7592 49.8805 15.5465 49.7738 15.3335 49.6675C16.1013 49.5052 16.3144 49.1324 15.9723 48.5495C16.6971 48.0253 17.4423 47.7589 18.2082 47.7509C18.7133 47.167 19.1394 46.5282 19.4859 45.8344C20.0995 45.7194 20.632 45.453 21.083 45.0359C21.0163 44.8487 20.9096 44.689 20.7636 44.5567C22.0413 43.7048 22.2544 42.6402 21.4025 41.3625C21.7219 41.2561 22.0413 41.1495 22.3607 41.0431C22.0362 40.8773 21.8235 40.6109 21.7219 40.2445C21.8174 39.5051 22.0835 39.5051 22.5204 40.2445C22.9255 40.2075 23.3516 40.1011 23.7981 39.9251C24.0776 40.5681 24.5037 40.5681 25.0758 39.9251C25.3483 40.4442 25.6677 40.5505 26.0341 40.2445C26.7119 40.4745 26.8716 40.8473 26.5132 41.3625C27.0035 41.5209 27.4827 41.4679 27.9506 41.2028C27.965 41.6573 28.3374 41.9768 29.0686 42.1611C29.4835 41.9726 29.7496 41.6532 29.8671 41.2028C30.0269 41.5756 30.2929 41.8416 30.6657 42.0014C29.5896 42.4134 29.6962 42.8925 30.9851 43.4388C30.9976 42.5179 31.2637 41.5596 31.7837 40.564C32.3161 40.9578 32.7953 41.3839 33.2211 41.8416Z" fill="#131313"/>
<path fill-rule="evenodd" clip-rule="evenodd" d="M53.3444 33.8555C62.1672 35.926 70.2594 39.5463 77.6205 44.7158C76.5364 45.585 75.365 46.3302 74.1068 46.9518C66.8675 42.3553 58.9883 39.4271 50.4696 38.1677C50.2294 37.9533 50.1227 37.6873 50.1502 37.3691C50.7632 35.7976 51.8278 34.6262 53.3444 33.8555Z" fill="#131313"/>
<path fill-rule="evenodd" clip-rule="evenodd" d="M29.3878 58.4517C29.4763 60.7627 29.9024 62.9986 30.6655 65.1595C29.7535 65.0503 29.2744 64.5178 29.2281 63.5624C28.9598 64.4625 29.2262 65.1544 30.0266 65.6386C29.4367 66.1826 28.8508 66.1293 28.2698 65.4789C26.5232 66.9058 24.8728 68.4496 23.3188 70.1105C23.7446 70.3236 23.7446 70.5363 23.3188 70.7494C22.8595 70.8193 22.4337 70.9791 22.0411 71.2285C21.935 72.0009 21.935 72.7464 22.0411 73.4645C21.4246 73.1284 20.9455 72.7023 20.6037 72.1868C20.2482 72.5893 20.1948 72.962 20.444 73.3048C20.1044 73.6842 19.6783 73.8439 19.1663 73.7839C19.1161 74.2225 19.1695 74.6486 19.326 75.0616C19.5554 74.7578 19.8214 74.7048 20.1246 74.9019C19.7518 75.2746 19.3794 75.6471 19.0066 76.0198C18.1017 75.6471 17.8353 75.9135 18.208 76.8184C17.4484 77.1295 17.5551 77.3426 18.5275 77.4572C18.1684 77.5368 17.849 77.6965 17.5692 77.9364C17.995 78.2558 17.995 78.5752 17.5692 78.8946C17.2846 79.2428 16.9652 79.2428 16.6109 78.8946C16.3784 79.4354 16.059 79.9146 15.6527 80.332C15.8117 80.7019 16.0778 80.968 16.4512 81.1306C16.8029 80.8779 17.069 80.8779 17.2498 81.1306C16.9878 81.6452 16.5617 81.8582 15.9721 81.7694C16.0197 82.1055 15.9667 82.4249 15.8124 82.7277C15.5993 82.3019 15.3866 82.3019 15.1735 82.7277C14.9915 81.4462 14.6187 81.2865 14.0556 82.2486C14.4149 82.9318 14.8407 83.3046 15.3332 83.3665C14.6858 83.7476 14.2066 84.2801 13.8958 84.9637C13.7518 84.1878 13.4854 84.1344 13.0973 84.8039C13.2037 84.9103 13.3103 85.017 13.4167 85.1234C12.1943 85.6281 12.2473 86.1072 13.5764 86.5608C13.7524 87.1527 13.5397 87.5788 12.9376 87.8385C12.8229 86.8661 12.6098 86.7594 12.2987 87.519C12.1278 86.9533 11.8614 86.847 11.5002 87.1996C12.2991 88.2671 12.033 88.5865 10.7016 88.1579C11.0357 88.9251 11.1954 89.7767 11.1808 90.7132C9.69002 88.4773 8.19959 86.2413 6.70885 84.0054C5.90103 82.2211 5.15582 80.4109 4.4729 78.5752C4.72524 78.221 4.88495 77.7952 4.95203 77.2975C6.06011 76.3524 6.912 75.0747 7.50741 73.4645C7.63965 73.6105 7.79936 73.7171 7.98654 73.7839C8.37975 73.4162 8.37975 73.0438 7.98654 72.6659C8.89114 72.0565 8.78477 71.7904 7.66712 71.8674C7.53392 71.0436 7.74697 70.3514 8.30596 69.7911C7.49846 69.5774 7.49846 69.3114 8.30596 68.9926C8.60973 69.2564 8.92915 69.3094 9.26423 69.1523C9.15786 69.0459 9.05117 68.9392 8.9448 68.8329C9.6996 68.6447 10.019 68.1656 9.90307 67.3955C10.2391 67.4431 10.5585 67.39 10.8613 67.2358C11.3804 66.9633 11.4868 66.6439 11.1808 66.2775C11.5002 66.1711 11.8196 66.0644 12.139 65.9581C11.7867 65.4214 11.8931 64.9423 12.4584 64.5207C13.1433 64.9848 13.7288 64.8784 14.2153 64.2012C14.3216 64.4143 14.4283 64.627 14.5347 64.8401C14.7532 64.43 14.6998 64.0572 14.375 63.7221C14.588 63.6157 14.8008 63.5091 15.0138 63.4027C14.3954 62.7546 14.4484 62.0627 15.1735 61.3264C15.445 61.6216 15.7645 61.6216 16.1318 61.3264C16.4352 61.4932 16.7016 61.7062 16.9303 61.9653C17.3753 61.5299 17.9075 61.2638 18.5275 61.1667C18.1013 60.487 17.7289 59.6885 17.4095 58.7711C17.7289 58.3453 18.0483 58.3453 18.3677 58.7711C18.8906 58.0332 19.5828 57.5541 20.444 57.3337C19.9789 57.1986 19.8192 56.9325 19.9649 56.5351C20.0712 56.6415 20.1779 56.7482 20.2843 56.8545C20.7829 56.0646 21.4217 55.4258 22.2008 54.938C22.4682 55.4194 22.8409 55.5791 23.3188 55.4171C23.1396 54.8818 22.8202 54.456 22.3605 54.1395C23.0188 53.246 23.7107 53.2991 24.4368 54.2992C24.882 53.9437 25.2548 53.5175 25.5547 53.0215C25.6087 53.308 25.7151 53.6274 25.8742 53.9797C26.8893 54.1979 27.6878 54.7304 28.2698 55.5769C28.5717 55.4475 28.7847 55.2344 28.9087 54.938C28.9652 56.1697 29.1249 57.341 29.3878 58.4517Z" fill="#131313"/>
<path fill-rule="evenodd" clip-rule="evenodd" d="M37.0541 74.4221C38.4381 75.6998 39.8225 76.9775 41.2065 78.2552C41.526 78.681 41.8454 79.1071 42.1648 79.5329C41.9706 80.9514 41.2254 81.9627 39.9289 82.5674C39.9822 82.7271 40.0352 82.8868 40.0886 83.0465C40.6741 82.1416 41.1532 82.1946 41.526 83.2062C41.4196 83.3126 41.3129 83.4193 41.2065 83.5256C41.609 83.8812 41.9818 83.9345 42.3245 83.6853C43.3077 84.4417 43.148 85.0272 41.8454 85.4422C42.1207 86.3155 42.3868 86.3688 42.6439 85.6019C43.3802 85.6271 44.1788 85.6805 45.0396 85.7616C44.8799 85.9213 44.7202 86.081 44.5605 86.2407C44.0411 86.1276 43.4556 86.1276 42.8037 86.2407C42.8685 86.8444 42.6558 87.3236 42.1648 87.6781C42.2019 88.0831 42.3082 88.5093 42.4842 88.9558C42.0393 89.3299 41.7729 89.809 41.6857 90.3932C40.3959 89.9045 40.2361 90.1709 41.2065 91.1918C40.4371 91.5754 39.7982 92.1075 39.29 92.7889C39.5107 93.1297 39.6704 93.5025 39.7691 93.9068C39.978 93.5248 40.1378 93.5248 40.2483 93.9068C39.9848 94.1899 39.6653 94.2962 39.29 94.2263C39.3501 93.7142 39.1904 93.2881 38.8109 92.9486C38.7237 93.5328 38.4573 94.0119 38.0123 94.386C37.615 94.5316 37.3489 94.3719 37.2138 93.9068C37.4367 94.63 37.277 95.2155 36.7346 95.6637C37.1093 96.6571 36.9496 96.7104 36.2555 95.8234C36.1932 96.3686 36.1932 96.9011 36.2555 97.4205C35.5192 96.9608 34.9337 97.1205 34.4987 97.8996C35.2864 98.1967 35.233 98.4628 34.339 98.6982C34.0924 98.6519 33.8793 98.5455 33.7001 98.3787C33.4756 99.107 33.1031 99.7459 32.5822 100.295C32.7316 100.817 33.0511 101.19 33.5404 101.413C33.0268 101.623 32.654 101.464 32.4224 100.934C31.5996 101.582 31.4399 102.274 31.9433 103.01C31.0461 103.518 30.8333 104.21 31.3045 105.087C31.0572 105.473 30.7912 105.473 30.5059 105.087C30.2852 105.97 29.8061 106.183 29.0685 105.725C28.1122 106.273 27.2606 106.911 26.5131 107.642C23.8623 105.524 21.4133 103.181 19.1664 100.615C19.3 100.384 19.5127 100.224 19.8053 100.136C19.0687 99.399 18.3232 98.6535 17.5693 97.8996C19.0623 97.6351 19.169 96.9963 17.8888 95.9831C18.756 95.7036 19.1818 95.1181 19.1664 94.2263C19.4859 94.2263 19.8053 94.2263 20.1247 94.2263C20.1384 93.3996 20.4579 92.7077 21.083 92.15C20.2001 91.6568 20.2534 91.2841 21.2427 91.032C21.6813 91.0014 22.1604 91.0544 22.6801 91.1918C22.4801 90.9522 22.3204 90.6858 22.201 90.3932C21.909 90.7618 21.6429 90.7085 21.4024 90.2335C21.9777 90.1322 22.084 89.9192 21.7218 89.5947C22.6747 88.8114 23.6329 88.0129 24.5966 87.199C24.5299 87.0118 24.4232 86.8521 24.2772 86.7199C25.0898 86.1593 25.835 85.5204 26.5131 84.8033C26.0874 84.2156 26.1407 84.0559 26.6729 84.3242C27.0737 84.0971 27.4462 83.831 27.7908 83.5256C27.404 83.1701 27.404 82.7974 27.7908 82.4077C28.5166 81.7206 29.3685 81.2415 30.3462 80.9703C29.7559 80.4934 29.4898 79.9079 29.5477 79.2134C29.654 79.1071 29.7607 79.0004 29.8671 78.894C30.5059 79.3198 31.0384 79.8523 31.4642 80.4911C32.0934 79.0953 32.892 77.8176 33.8598 76.6581C34.3016 77.4809 34.568 77.3742 34.6584 76.3386C35.3269 75.5075 36.1255 74.8687 37.0541 74.4221Z" fill="#131313"/>
<path fill-rule="evenodd" clip-rule="evenodd" d="M30.4451 65.1225C30.5792 65.1513 30.6956 65.2394 30.7455 65.3671C31.8051 68.0808 33.298 70.4966 35.2241 72.6147C36.0472 73.5199 35.8298 75.0467 34.9984 75.9442C34.9472 75.9995 34.8966 76.0558 34.8468 76.1131C34.7209 76.2577 34.6358 76.5994 34.5965 76.7871C34.4562 77.4578 33.3825 77.2336 32.9906 77.7957C32.6977 78.2157 32.4245 78.6495 32.1709 79.0969C31.8353 79.6888 30.9482 79.7659 30.4321 79.3224C30.332 79.2363 30.2285 79.1535 30.1218 79.0739C29.9763 78.9654 29.7743 78.9864 29.6459 79.1148C29.5822 79.1785 29.5419 79.2627 29.54 79.3528C29.5388 79.4137 29.5401 79.4737 29.544 79.5328C29.5913 80.2412 29.3986 81.2692 28.7926 81.6391C28.4354 81.8571 28.1014 82.1133 27.7905 82.4077C27.6928 82.506 27.6198 82.6033 27.5715 82.6996C27.3485 83.1432 27.4646 83.8201 27.05 84.0933C26.8208 84.2443 26.5193 84.0975 26.2673 84.206C25.9048 84.3622 26.3182 85.013 26.0335 85.2864C25.5778 85.7241 25.0944 86.1295 24.5832 86.5025C24.4282 86.6156 24.4157 86.8434 24.5103 87.0103C24.5714 87.1182 24.5335 87.252 24.4387 87.332C23.6555 87.9925 22.8759 88.6428 22.0998 89.283C21.901 89.4471 22.0376 89.786 21.9075 90.0085C21.893 90.0334 21.8718 90.0566 21.8441 90.0783C21.6589 90.2231 21.4898 90.4812 21.6946 90.5965C21.7782 90.6436 21.8645 90.6472 21.9534 90.6073C22.088 90.547 22.2721 90.5633 22.3421 90.6931C22.4313 90.8585 22.2734 91.0963 22.0875 91.0691C21.8058 91.0279 21.5375 91.0147 21.2828 91.0295C21.2559 91.031 21.2286 91.0355 21.2025 91.0424C21.023 91.0899 20.876 91.1417 20.7615 91.1976C20.1515 91.4953 20.532 92.6384 20.2963 93.275C20.2391 93.4296 20.1961 93.5904 20.1673 93.7576C20.1231 94.0152 19.9147 94.2263 19.6533 94.2263C19.3856 94.2263 19.1781 94.4485 19.1252 94.7109C19.0997 94.8373 19.0624 94.9554 19.0134 95.0653C18.7528 95.6495 18.8584 96.5766 18.7705 97.2102C18.6815 97.8511 18.1972 98.5278 18.6548 98.9854C18.931 99.2616 19.206 99.5366 19.4798 99.8104C19.627 99.9576 19.5476 100.219 19.3874 100.352C19.248 100.468 19.0404 100.489 18.9131 100.36C16.0752 97.4883 13.5548 94.3607 11.3518 90.9771C11.2397 90.8049 11.1844 90.6029 11.1788 90.3976C11.1736 90.2033 11.1605 90.0128 11.1396 89.8261C11.0646 89.1568 12.1474 88.3905 11.8654 87.779C11.8173 87.6748 11.7486 87.5561 11.6593 87.4229C11.572 87.2926 11.597 87.0869 11.7412 87.0254C12.0118 86.9102 12.7003 86.9194 12.8065 87.1937C12.8234 87.2371 12.8393 87.2886 12.8543 87.3483C12.9146 87.5883 13.1751 87.7447 13.3563 87.5762C13.5274 87.417 13.62 87.2244 13.6341 86.9982C13.6514 86.7202 13.4161 86.5132 13.1617 86.3997C12.336 86.0313 12.33 85.6466 13.1435 85.2454C13.2709 85.1826 13.3058 85.0121 13.2054 84.9116C13.1415 84.8477 13.128 84.7481 13.1774 84.6725C13.2055 84.6294 13.233 84.5904 13.2598 84.5557C13.4731 84.2786 14.2795 84.2766 14.5167 84.0197C14.748 83.7689 14.6741 83.1024 14.4511 82.8443C14.3624 82.7417 14.277 82.6243 14.1947 82.492C14.1024 82.3436 14.106 82.1539 14.2061 82.0106C14.5925 81.4578 14.877 81.5057 15.0594 82.1543C15.1077 82.3263 15.4065 82.3493 15.5681 82.4255C15.7033 82.4893 15.9031 82.5353 15.9402 82.3905C15.9592 82.3168 15.9725 82.2421 15.9804 82.1666C16.0009 81.9688 16.1719 81.8023 16.3695 81.7804C16.6061 81.7542 16.8075 81.6633 16.9738 81.5077C17.1846 81.3104 17.1896 80.9316 16.901 80.9407C16.6285 80.9492 16.2868 81.0761 16.076 80.9032C16.0311 80.8664 15.9887 80.8271 15.9488 80.7854C15.7209 80.5469 15.808 80.1812 16.0095 79.92C16.0409 79.8791 16.0717 79.8378 16.1018 79.796C16.3935 79.3907 17.1526 79.324 17.5028 78.968C17.543 78.9272 17.5929 78.8772 17.6367 78.8402C17.9449 78.5797 17.97 78.3192 17.7119 78.0587C17.6437 77.99 17.6404 77.8743 17.7188 77.8177C17.8571 77.7179 17.7323 77.3511 17.7091 77.1822C17.6982 77.1036 17.7965 77.0126 18.0039 76.9092C18.1141 76.8542 18.1683 76.7252 18.1291 76.6084C17.9458 76.061 18.0613 75.8123 18.4755 75.8625C18.8089 75.9028 19.1611 75.8645 19.3985 75.6271C19.5526 75.473 19.7066 75.319 19.8607 75.1649C19.9965 75.0291 19.9661 74.7809 19.774 74.7849C19.5363 74.7899 19.2218 74.7681 19.1832 74.5336C19.1675 74.4383 19.1571 74.3424 19.1518 74.2459C19.1379 73.9905 19.3759 73.8178 19.6278 73.774C19.79 73.7458 19.9414 73.69 20.0819 73.6065C20.3194 73.4655 20.304 73.1735 20.2906 72.8976C20.2719 72.5126 20.7968 72.4821 21.0709 72.7533C21.4152 73.0939 21.9571 72.7747 21.9617 72.2903C21.9638 72.0779 21.9744 71.8633 21.9936 71.6465C22.0171 71.3803 22.1679 71.1386 22.4095 71.0246C22.6669 70.9032 22.9371 70.8168 23.2204 70.7652C23.2853 70.7533 23.3833 70.7167 23.4389 70.6814C23.7952 70.4557 23.6078 69.8008 23.9009 69.4976C25.0851 68.2729 26.3236 67.1141 27.6163 66.0212C27.9791 65.7145 28.4992 65.8243 28.9524 65.967C29.188 66.0412 29.4244 66.0184 29.6614 65.8986C29.8623 65.7971 29.8015 65.5011 29.6368 65.3478C29.3586 65.0887 29.9089 64.9651 30.2721 65.0775C30.3276 65.0946 30.3852 65.1096 30.4451 65.1225Z" fill="#131313"/>
<ellipse cx="28.7494" cy="65.9574" rx="2.07624" ry="2.23595" fill="#131313"/>
<path fill-rule="evenodd" clip-rule="evenodd" d="M42.1646 79.533C42.5904 79.8524 43.0165 80.1718 43.4423 80.4912C43.9748 81.2364 44.6136 81.8753 45.3588 82.4078C45.8913 83.153 46.5301 83.7918 47.2754 84.3243C47.5948 84.8568 48.0206 85.2826 48.553 85.602C49.8397 86.9943 51.1174 88.3787 52.3861 89.7545C54.2269 92.7212 55.5046 95.9155 56.2192 99.3371C56.2192 99.6565 56.2192 99.976 56.2192 100.295C56.2725 104.023 56.2192 107.75 56.0595 111.475C55.7726 112.579 55.3998 113.644 54.9415 114.669C53.9005 116.31 52.5164 117.587 50.789 118.502C47.2942 119.933 43.8872 119.774 40.5675 118.023C37.6384 116.206 34.7636 114.343 31.9431 112.433C30.0384 110.955 28.2282 109.358 26.5129 107.642C27.2604 106.912 28.112 106.273 29.0683 105.726C29.8059 106.183 30.285 105.97 30.5057 105.087C30.791 105.474 31.057 105.474 31.3043 105.087C30.8331 104.21 31.0459 103.518 31.9431 103.01C31.4397 102.274 31.5994 101.582 32.4222 100.934C32.6538 101.464 33.0266 101.624 33.5402 101.413C33.0509 101.19 32.7314 100.817 32.582 100.295C33.1029 99.746 33.4754 99.1071 33.6999 98.3788C33.8791 98.5456 34.0922 98.6519 34.3388 98.6983C35.2328 98.4628 35.2862 98.1968 34.4985 97.8997C34.9335 97.1206 35.519 96.9609 36.2553 97.4206C36.193 96.9012 36.193 96.3687 36.2553 95.8235C36.9494 96.7105 37.1091 96.6572 36.7344 95.6638C37.2768 95.2156 37.4365 94.6301 37.2136 93.9069C37.3487 94.372 37.6148 94.5317 38.0121 94.3861C38.4571 94.012 38.7235 93.5329 38.8107 92.9487C39.1901 93.2882 39.3499 93.7143 39.2898 94.2264C39.6651 94.2963 39.9846 94.1899 40.2481 93.9069C40.1376 93.5249 39.9778 93.5249 39.7689 93.9069C39.6702 93.5025 39.5105 93.1298 39.2898 92.789C39.798 92.1076 40.4369 91.5755 41.2063 91.1919C40.2359 90.171 40.3956 89.9046 41.6855 90.3933C41.7727 89.8091 42.0391 89.3299 42.484 88.9559C42.308 88.5093 42.2017 88.0832 42.1646 87.6782C42.6556 87.3237 42.8683 86.8445 42.8034 86.2408C43.4554 86.1277 44.0409 86.1277 44.5603 86.2408C44.72 86.0811 44.8797 85.9214 45.0394 85.7617C44.1786 85.6805 43.38 85.6272 42.6437 85.602C42.3866 86.3689 42.1205 86.3156 41.8452 85.4423C43.1478 85.0273 43.3075 84.4418 42.3243 83.6854C41.9816 83.9346 41.6088 83.8812 41.2063 83.5257C41.3127 83.4194 41.4194 83.3127 41.5258 83.2063C41.153 82.1947 40.6739 82.1417 40.0884 83.0466C40.035 82.8869 39.982 82.7272 39.9287 82.5675C41.2252 81.9628 41.9704 80.9515 42.1646 79.533Z" fill="#131313"/>
<rect x="24.6233" y="58.6113" width="32.7464" height="25.2701" transform="rotate(60.5356 24.6233 58.6113)" fill="#131313"/>
<circle cx="89.9185" cy="95.983" r="23.9566" fill="#F0B400"/>
<ellipse cx="12.4583" cy="88.6368" rx="2.07624" ry="2.23595" fill="#131313"/>
<rect x="33.3809" y="74.562" width="2.55537" height="3.19422" transform="rotate(-47.9222 33.3809 74.562)" fill="#131313"/>
</svg>
