<svg width="407" height="54" viewBox="0 0 407 54" fill="none" xmlns="http://www.w3.org/2000/svg">
<path d="M20.5894 0.603349C27.4274 0.603349 32.8073 2.23743 36.729 5.50558C40.6508 8.77374 42.6117 13.2737 42.6117 19.0056C42.6117 24.7374 40.6508 29.2374 36.729 32.5056C32.8073 35.7737 27.4274 37.4078 20.5894 37.4078H7.5419V53.3966H0V0.603349H20.5894ZM20.3631 30.8464C25.1397 30.8464 28.7849 29.8408 31.2989 27.8296C33.8128 25.7682 35.0698 22.8268 35.0698 19.0056C35.0698 15.1844 33.8128 12.2682 31.2989 10.257C28.7849 8.19553 25.1397 7.1648 20.3631 7.1648H7.5419V30.8464H20.3631Z" fill="#131313"/>
<path d="M92.7589 53.3966L81.3706 37.1816C79.9628 37.2821 78.8566 37.3324 78.0522 37.3324H65.0047V53.3966H57.4628V0.603349H78.0522C84.8902 0.603349 90.2701 2.23743 94.1918 5.50558C98.1136 8.77374 100.075 13.2737 100.075 19.0056C100.075 23.0782 99.0689 26.5475 97.0578 29.4134C95.0466 32.2793 92.1807 34.3659 88.46 35.6732L100.98 53.3966H92.7589ZM77.8259 30.9218C82.6025 30.9218 86.2477 29.8911 88.7617 27.8296C91.2756 25.7682 92.5326 22.8268 92.5326 19.0056C92.5326 15.1844 91.2756 12.2682 88.7617 10.257C86.2477 8.19553 82.6025 7.1648 77.8259 7.1648H65.0047V30.9218H77.8259Z" fill="#131313"/>
<path d="M139.863 54C134.533 54 129.731 52.8436 125.458 50.5307C121.184 48.1676 117.815 44.9246 115.352 40.8017C112.938 36.6788 111.731 32.0782 111.731 27C111.731 21.9218 112.938 17.3212 115.352 13.1983C117.815 9.07542 121.184 5.85754 125.458 3.54469C129.731 1.18156 134.533 0 139.863 0C145.142 0 149.919 1.18156 154.192 3.54469C158.466 5.85754 161.81 9.07542 164.223 13.1983C166.636 17.2709 167.843 21.8715 167.843 27C167.843 32.1285 166.636 36.7542 164.223 40.8771C161.81 44.9497 158.466 48.1676 154.192 50.5307C149.919 52.8436 145.142 54 139.863 54ZM139.863 47.2877C143.734 47.2877 147.204 46.4078 150.271 44.648C153.388 42.8883 155.826 40.4749 157.586 37.4078C159.396 34.2905 160.301 30.8212 160.301 27C160.301 23.1788 159.396 19.7346 157.586 16.6676C155.826 13.5503 153.388 11.1117 150.271 9.35195C147.204 7.59218 143.734 6.71229 139.863 6.71229C135.991 6.71229 132.472 7.59218 129.304 9.35195C126.187 11.1117 123.723 13.5503 121.913 16.6676C120.153 19.7346 119.273 23.1788 119.273 27C119.273 30.8212 120.153 34.2905 121.913 37.4078C123.723 40.4749 126.187 42.8883 129.304 44.648C132.472 46.4078 135.991 47.2877 139.863 47.2877Z" fill="#131313"/>
<path d="M190.683 7.1648V25.567H217.155V32.0531H190.683V53.3966H183.141V0.603349H220.398V7.1648H190.683Z" fill="#131313"/>
<path d="M242.328 7.1648V25.567H268.8V32.0531H242.328V53.3966H234.786V0.603349H272.043V7.1648H242.328Z" fill="#131313"/>
<path d="M286.43 0.603349H293.972V53.3966H286.43V0.603349Z" fill="#131313"/>
<path d="M324.032 7.1648H305.931V0.603349H349.599V7.1648H331.498V53.3966H324.032V7.1648Z" fill="#131313"/>
<path d="M392.569 40.1983H378.541H364.514L358.706 53.3966H350.938L374.846 0.603349H382.312L406.296 53.3966H398.377L392.569 40.1983ZM392.569 40.1983L378.541 8.29609L364.514 40.1983H378.541H392.569Z" fill="#131313"/>
<path d="M378.811 22.9204C375.443 28.6328 372.062 32.4535 368.714 35.8948C375.43 33.2856 382.192 33.2856 388.908 35.8948C385.56 32.4535 382.179 28.6328 378.811 22.9204ZM378.811 35.1027C378.121 35.1027 377.432 35.136 376.736 35.1959C377.167 42.1318 373.527 49.6334 366.241 53.088H391.381C384.095 49.6334 380.455 42.1318 380.886 35.1959C380.19 35.136 379.5 35.1027 378.811 35.1027Z" fill="#F0B400"/>
</svg>
